<svg version="1.1" viewBox="0.0 0.0 3000.0 3000.0" fill="none" stroke="none" stroke-linecap="square" stroke-miterlimit="10" xmlns:xlink="http://www.w3.org/1999/xlink" xmlns="http://www.w3.org/2000/svg"><clipPath id="g5445764589_0_7.0"><path d="m0 0l3000.0 0l0 3000.0l-3000.0 0l0 -3000.0z" clip-rule="nonzero"/></clipPath><g clip-path="url(#g5445764589_0_7.0)"><path fill="#ffffff" d="m0 0l3000.0 0l0 3000.0l-3000.0 0z" fill-rule="evenodd"/><g filter="url(#shadowFilter-g5445764589_0_7.1)"><use xlink:href="#g5445764589_0_7.1" transform="matrix(1.0 0.0 0.0 1.0 -1.9543719754757218 55.965884391404195)"/></g><defs><filter id="shadowFilter-g5445764589_0_7.1" filterUnits="userSpaceOnUse"><feGaussianBlur in="SourceAlpha" stdDeviation="0.0" result="blur"/><feComponentTransfer in="blur" color-interpolation-filters="sRGB"><feFuncR type="linear" slope="0" intercept="0.0"/><feFuncG type="linear" slope="0" intercept="0.0"/><feFuncB type="linear" slope="0" intercept="0.0"/><feFuncA type="linear" slope="0.9" intercept="0"/></feComponentTransfer></filter></defs><g id="g5445764589_0_7.1"><defs><radialGradient id="g5445764589_0_7.2" gradientUnits="userSpaceOnUse" gradientTransform="matrix(43.2055151043599 0.0 0.0 43.2055151043599 0.0 0.0)" spreadMethod="pad" cx="34.705178484025225" cy="35.86622376676188" fx="34.705178484025225" fy="35.86622376676188" r="43.20551681518555"><stop offset="0.0" stop-color="#d4e5f5"/><stop offset="1.0" stop-color="#70a4d5"/></radialGradient></defs><path fill="url(#g5445764589_0_7.2)" d="m270.83298 1171.0638l0 0c-24.188293 -178.76105 55.226746 -355.7237 204.54642 -455.79614c149.31964 -100.07245 342.3565 -105.7041 497.19788 -14.505249l0 0c54.849487 -103.93915 155.24023 -175.7019 270.8058 -193.58154c115.56555 -17.879608 232.73242 20.223999 316.05994 102.78522l0 0c46.72473 -94.237915 138.4696 -157.55374 242.67871 -167.47974c104.20923 -9.926025 206.1344 34.942566 269.60754 118.68402l0 0c84.41504 -99.89191 218.72144 -141.95056 344.80444 -107.97693c126.08276 33.973633 221.29614 137.87756 244.44092 266.752l0 0c103.42285 28.369751 189.57178 100.48938 236.18896 197.72546c46.616943 97.236084 49.12915 210.04999 6.887207 309.29425l0 0c101.84131 133.2959 125.66455 310.91113 62.579346 466.56274c-63.085205 155.65161 -203.60107 265.95483 -369.10962 289.74634c-1.1665039 146.0846 -80.83374 280.13025 -208.29419 350.4696c-127.46045 70.339355 -282.81104 65.98877 -406.1726 -11.374756c-52.545532 174.96167 -200.4436 303.69678 -379.79675 330.5869c-179.35315 26.89038 -358.0089 -52.884766 -458.78125 -204.85962c-123.52588 74.908936 -271.74658 96.48779 -411.22662 59.868896c-139.48004 -36.618896 -258.47025 -128.35107 -330.1288 -254.50342l0 0c-126.227905 14.854736 -248.27284 -50.91382 -305.56436 -164.6648c-57.291508 -113.75134 -37.633595 -251.27026 49.21759 -344.30676l0 0c-112.59856 -66.64685 -170.05313 -198.89636 -142.40341 -327.78564c27.64972 -128.88928 134.1382 -225.21155 263.93588 -238.7384z" fill-rule="evenodd"/><path fill="#000000" fill-opacity="0.0" d="m146.80537 1744.4777l0 0c53.135605 31.450928 114.51967 45.717773 175.91042 40.88501m80.40869 468.09802c26.4003 -3.1069336 52.277588 -9.686035 76.96454 -19.567627m664.354 214.19385c-18.568237 -28.002686 -34.114502 -57.92627 -46.3739 -89.260254m884.984 -36.472168l0 0c9.579834 -31.898193 15.786743 -64.72827 18.51709 -97.94263m595.92664 -241.14001c1.2419434 -155.52966 -86.59912 -297.93408 -225.79272 -366.04663m532.32007 -390.2461c-22.541992 52.960815 -56.954834 99.94153 -100.54028 137.25879m-142.51514 -644.29236l0 0c3.8410645 21.386719 5.6186523 43.09491 5.3081055 64.82367m-594.54346 -223.59235l0 0c-21.057373 24.91809 -38.40576 52.763733 -51.50525 82.66986m-460.78564 -33.88501l0 0c-11.221802 22.632874 -19.60144 46.582336 -24.946045 71.29675m-561.9282 19.501404l0 0c32.764343 19.297668 63.075806 42.524414 90.268555 69.170044m-792.0038 401.1339l0 0c3.3338013 24.63794 8.601318 48.972168 15.753326 72.77478" fill-rule="evenodd"/><path stroke="#000000" stroke-width="1.0" stroke-linejoin="round" stroke-linecap="butt" d="m270.83298 1171.0638l0 0c-24.188293 -178.76105 55.226746 -355.7237 204.54642 -455.79614c149.31964 -100.07245 342.3565 -105.7041 497.19788 -14.505249l0 0c54.849487 -103.93915 155.24023 -175.7019 270.8058 -193.58154c115.56555 -17.879608 232.73242 20.223999 316.05994 102.78522l0 0c46.72473 -94.237915 138.4696 -157.55374 242.67871 -167.47974c104.20923 -9.926025 206.1344 34.942566 269.60754 118.68402l0 0c84.41504 -99.89191 218.72144 -141.95056 344.80444 -107.97693c126.08276 33.973633 221.29614 137.87756 244.44092 266.752l0 0c103.42285 28.369751 189.57178 100.48938 236.18896 197.72546c46.616943 97.236084 49.12915 210.04999 6.887207 309.29425l0 0c101.84131 133.2959 125.66455 310.91113 62.579346 466.56274c-63.085205 155.65161 -203.60107 265.95483 -369.10962 289.74634c-1.1665039 146.0846 -80.83374 280.13025 -208.29419 350.4696c-127.46045 70.339355 -282.81104 65.98877 -406.1726 -11.374756c-52.545532 174.96167 -200.4436 303.69678 -379.79675 330.5869c-179.35315 26.89038 -358.0089 -52.884766 -458.78125 -204.85962c-123.52588 74.908936 -271.74658 96.48779 -411.22662 59.868896c-139.48004 -36.618896 -258.47025 -128.35107 -330.1288 -254.50342l0 0c-126.227905 14.854736 -248.27284 -50.91382 -305.56436 -164.6648c-57.291508 -113.75134 -37.633595 -251.27026 49.21759 -344.30676l0 0c-112.59856 -66.64685 -170.05313 -198.89636 -142.40341 -327.78564c27.64972 -128.88928 134.1382 -225.21155 263.93588 -238.7384z" fill-rule="evenodd"/><path stroke="#000000" stroke-width="1.0" stroke-linejoin="round" stroke-linecap="butt" d="m146.80537 1744.4777l0 0c53.135605 31.450928 114.51967 45.717773 175.91042 40.88501m80.40869 468.09802c26.4003 -3.1069336 52.277588 -9.686035 76.96454 -19.567627m664.354 214.19385c-18.568237 -28.002686 -34.114502 -57.92627 -46.3739 -89.260254m884.984 -36.472168l0 0c9.579834 -31.898193 15.786743 -64.72827 18.51709 -97.94263m595.92664 -241.14001c1.2419434 -155.52966 -86.59912 -297.93408 -225.79272 -366.04663m532.32007 -390.2461c-22.541992 52.960815 -56.954834 99.94153 -100.54028 137.25879m-142.51514 -644.29236l0 0c3.8410645 21.386719 5.6186523 43.09491 5.3081055 64.82367m-594.54346 -223.59235l0 0c-21.057373 24.91809 -38.40576 52.763733 -51.50525 82.66986m-460.78564 -33.88501l0 0c-11.221802 22.632874 -19.60144 46.582336 -24.946045 71.29675m-561.9282 19.501404l0 0c32.764343 19.297668 63.075806 42.524414 90.268555 69.170044m-792.0038 401.1339l0 0c3.3338013 24.63794 8.601318 48.972168 15.753326 72.77478" fill-rule="evenodd"/></g><g filter="url(#shadowFilter-g5445764589_0_7.3)"><use xlink:href="#g5445764589_0_7.3" transform="matrix(1.0 0.0 0.0 1.0 0.0 34.0)"/></g><defs><filter id="shadowFilter-g5445764589_0_7.3" filterUnits="userSpaceOnUse"><feGaussianBlur in="SourceAlpha" stdDeviation="2.0" result="blur"/><feComponentTransfer in="blur" color-interpolation-filters="sRGB"><feFuncR type="linear" slope="0" intercept="0.0"/><feFuncG type="linear" slope="0" intercept="0.0"/><feFuncB type="linear" slope="0" intercept="0.0"/><feFuncA type="linear" slope="0.97" intercept="0"/></feComponentTransfer></filter></defs><g id="g5445764589_0_7.3"><defs><radialGradient id="g5445764589_0_7.4" gradientUnits="userSpaceOnUse" gradientTransform="matrix(37.20763545944488 0.0 0.0 37.20763545944488 0.0 0.0)" spreadMethod="pad" cx="40.31430596106951" cy="41.70496961548209" fx="40.31430596106951" fy="41.70496961548209" r="37.20763397216797"><stop offset="0.0" stop-color="#db0000"/><stop offset="1.0" stop-color="#540303"/></radialGradient></defs><path fill="url(#g5445764589_0_7.4)" d="m1500.0 1092.1917c440.10498 -1046.3623 2156.5144 0 0 1345.3228c-2156.5144 -1345.3228 -440.10498 -2391.685 0 -1345.3228z" fill-rule="evenodd"/><path stroke="#000000" stroke-width="24.0" stroke-linejoin="round" stroke-linecap="butt" d="m1500.0 1092.1917c440.10498 -1046.3623 2156.5144 0 0 1345.3228c-2156.5144 -1345.3228 -440.10498 -2391.685 0 -1345.3228z" fill-rule="evenodd"/></g><g filter="url(#shadowFilter-g5445764589_0_7.5)"><use xlink:href="#g5445764589_0_7.5" transform="matrix(1.0 0.0 0.0 1.0 0.0 30.0)"/></g><defs><filter id="shadowFilter-g5445764589_0_7.5" filterUnits="userSpaceOnUse"><feGaussianBlur in="SourceAlpha" stdDeviation="2.0" result="blur"/><feComponentTransfer in="blur" color-interpolation-filters="sRGB"><feFuncR type="linear" slope="0" intercept="0.0"/><feFuncG type="linear" slope="0" intercept="0.0"/><feFuncB type="linear" slope="0" intercept="0.0"/><feFuncA type="linear" slope="1.0" intercept="0"/></feComponentTransfer></filter></defs><g id="g5445764589_0_7.5"><path fill="#ffffff" d="m751.5148 1355.0499c-9.509094 0 -18.481628 0.82092285 -26.917725 2.4626465c-8.406189 1.6418457 -17.46814 5.2110596 -27.185974 10.707642c-9.717834 5.496582 -18.0495 12.581421 -24.994995 21.254517c-6.9455566 8.637451 -12.713684 20.754883 -17.30426 36.352295c-4.590576 15.561768 -6.8859253 33.532715 -6.8859253 53.91272c0 37.04834 4.590576 64.781006 13.771851 83.198c4.024231 8.137817 8.912964 14.669434 14.666138 19.59497c5.78302 4.925537 11.327515 8.15564 16.633545 9.690308c5.305969 1.53479 11.074097 2.302124 17.3042 2.302124c10.612122 0 18.52649 -3.390747 23.743042 -10.172119c5.24646 -6.8172607 8.510559 -14.937134 9.792297 -24.359863l2.190979 0l1.9227295 19.434326c0.35772705 5.4609375 1.9077759 8.798096 4.6502075 10.011597c2.7424927 1.213501 9.285645 1.8203125 19.629395 1.8203125c10.373596 0 20.35962 -0.8745117 29.95819 -2.623413c9.628357 -1.7845459 14.442566 -4.08667 14.442566 -6.906372l0 -91.12158c0 -3.06958 -1.2817993 -6.585205 -3.845398 -10.546997c-1.4606323 -2.427002 -4.173279 -4.283081 -8.137878 -5.567993c-3.9348145 -1.3205566 -10.209656 -1.980835 -18.824524 -1.980835c-8.585022 0 -17.557617 2.302124 -26.917664 6.906372c-9.330261 4.604248 -13.995422 9.636841 -13.995422 15.097656l0 29.606567c-5.4848633 -0.85668945 -10.060608 -5.175415 -13.727173 -12.956177c-3.666504 -7.780884 -5.499756 -19.684204 -5.499756 -35.70984c0 -31.801636 7.869629 -47.702393 23.608887 -47.702393c5.5147095 0 13.756958 1.7132568 24.726685 5.1396484c10.999634 3.390747 17.229736 5.0861816 18.690369 5.0861816c6.0512695 0 10.626953 -5.871338 13.727173 -17.614014c3.1299438 -11.742676 4.6949463 -22.646606 4.6949463 -32.71167c0 -12.742065 -4.486267 -21.361694 -13.458862 -25.858887c-8.972595 -4.4971924 -24.458435 -6.7457275 -46.45764 -6.7457275z" fill-rule="evenodd"/><path fill="#ffffff" d="m928.9862 1407.0353c3.845398 0 6.8710327 1.534668 9.076904 4.604248c2.2058716 3.069458 4.0391235 9.654663 5.499817 19.755493c1.4606323 10.065186 2.190918 24.431152 2.190918 43.098022c0 18.631226 -0.73028564 33.157837 -2.190918 43.579956c-1.4606934 10.421997 -3.2939453 17.221313 -5.499817 20.39795c-2.2058716 3.1766357 -5.2315063 4.7648926 -9.076904 4.7648926c-3.845398 0 -6.8710327 -1.5882568 -9.076904 -4.7648926c-2.1760864 -3.1766357 -3.9944458 -9.975952 -5.455078 -20.39795c-1.4606934 -10.422119 -2.190979 -24.94873 -2.190979 -43.579956c0 -18.66687 0.73028564 -33.032837 2.190979 -43.098022c1.4606934 -10.10083 3.2790527 -16.686035 5.455078 -19.755493c2.2058716 -3.06958 5.2315063 -4.604248 9.076904 -4.604248zm0 -51.98535c-28.02063 0 -50.809814 8.780151 -68.36737 26.340576c-8.972595 8.994385 -15.977783 21.165405 -21.015503 36.51294c-5.037781 15.347534 -7.5566406 33.31848 -7.5566406 53.91272c0 49.147827 9.240906 82.377075 27.722534 99.687744c9.151489 8.780151 19.167358 14.865723 30.047668 18.25647c10.910217 3.390747 23.966614 5.0860596 39.16931 5.0860596c29.868835 0 53.492554 -9.975952 70.87134 -29.927734c17.40857 -19.951782 26.112915 -50.985962 26.112915 -93.10254c0 -46.899292 -9.613525 -78.68298 -28.840454 -95.351074c-9.509155 -8.137817 -19.629333 -13.741455 -30.360657 -16.810913c-10.701477 -3.06958 -23.295898 -4.604248 -37.783142 -4.604248z" fill-rule="evenodd"/><path fill="#ffffff" d="m1129.2979 1407.3564c6.4089355 0 11.074097 4.3901367 13.995361 13.17041c2.9213867 8.780151 4.381958 26.108643 4.381958 51.98535c0 25.876709 -1.4158936 44.07959 -4.2478027 54.608643c-2.8319092 10.529175 -7.005127 15.793701 -12.519897 15.793701l-10.418213 -1.3383789l0 -132.88123c1.4605713 -0.892334 4.3968506 -1.338501 8.808594 -1.338501zm-58.530396 -48.987183c-9.896606 0 -16.857056 1.2669678 -20.881348 3.8011475c-4.02417 2.498413 -6.036377 6.6030273 -6.036377 12.313721l0 207.56677c0 3.4978027 1.5501709 6.014038 4.6502686 7.548828c3.130005 1.534668 9.181274 2.302124 18.153809 2.302124l64.83496 0c34.787354 0 59.14148 -8.815918 73.06238 -26.447754c13.920898 -17.667603 20.881348 -48.309082 20.881348 -91.92468c0 -43.651367 -6.6921387 -73.75745 -20.076538 -90.3186c-13.354492 -16.561035 -37.61914 -24.841553 -72.79407 -24.841553z" fill-rule="evenodd"/><path fill="#ffffff" d="m1358.1278 1358.048c-13.205444 0 -25.114136 2.355713 -35.72632 7.0670166c-10.612061 4.7113037 -15.918091 9.476196 -15.918091 14.294678l0 204.62207c0 2.8197021 1.5500488 4.8363037 4.6502686 6.0498047c3.130005 1.213501 10.313965 1.8203125 21.552002 1.8203125c11.267944 0 22.491089 -0.7138672 33.669556 -2.1414795c11.178467 -1.4277344 16.7677 -3.3372803 16.7677 -5.7286377l0 -210.56482c0 -2.177246 -0.6409912 -4.35437 -1.9227295 -6.531616c-3.666504 -5.9249268 -11.3573 -8.887329 -23.072388 -8.887329z" fill-rule="evenodd"/><path fill="#ffffff" d="m1480.0935 1355.0499c-48.52942 0 -72.79407 24.341919 -72.79407 73.02576c0 11.421387 2.012085 21.575806 6.036377 30.463135c4.024292 8.8515625 9.062012 15.704468 15.113281 20.558472c6.0512695 4.8184814 12.59436 9.208618 19.629272 13.17041c7.0648193 3.9261475 13.60791 6.9421387 19.629395 9.047852c6.0512695 2.0701904 11.088989 4.47937 15.113281 7.227661c4.054077 2.7126465 6.0810547 5.8356934 6.0810547 9.369141c0 3.4978027 -1.1029053 6.1746826 -3.308838 8.030762c-2.2058105 1.855957 -6.975342 2.7839355 -14.30835 2.7839355c-7.3032227 0 -18.198486 -2.94458 -32.68579 -8.83374c-14.45752 -5.9249268 -22.058838 -8.887329 -22.804077 -8.887329c-4.02417 0 -7.4969482 6.638672 -10.418335 19.916138c-2.9212646 13.241699 -4.381958 26.001587 -4.381958 38.279663c0 3.4978027 3.0107422 7.1204834 9.032227 10.868164c6.0512695 3.7120361 16.037354 7.102783 29.958252 10.172241c13.920898 3.069458 28.616821 4.604248 44.08777 4.604248c15.470947 0 28.110107 -1.5882568 37.91736 -4.7648926c9.807129 -3.1766357 17.453247 -7.1740723 22.93811 -11.992554c5.4848633 -4.8183594 9.971191 -10.529053 13.458862 -17.13208c5.6936035 -10.743286 8.540405 -22.682251 8.540405 -35.816895c0 -12.4921875 -2.0270996 -23.449707 -6.0811768 -32.872314c-4.02417 -9.458374 -9.06189 -16.757446 -15.113159 -21.897095c-6.0214844 -5.175293 -12.564575 -9.672485 -19.629395 -13.491577c-7.035034 -3.8546143 -13.533325 -6.710083 -19.49524 -8.56604c-5.961792 -1.855957 -10.954834 -3.9261475 -14.979126 -6.210327c-4.02417 -2.3200684 -6.036377 -5.2824707 -6.036377 -8.887329c0 -3.640625 1.4160156 -6.335327 4.2478027 -8.0842285c2.8319092 -1.7489014 8.227417 -2.623413 16.186401 -2.623413c7.9888916 0 18.019653 3.1766357 30.092407 9.529785c4.054077 1.9630127 6.438843 2.94458 7.154175 2.94458c4.23291 0 8.585083 -6.567383 13.056519 -19.702026c4.5010986 -13.170288 6.751709 -25.448364 6.751709 -36.834106c0 -3.319336 -2.7126465 -6.6743164 -8.137939 -10.065063c-5.3953857 -3.390747 -14.695923 -6.460327 -27.901367 -9.208618c-13.175659 -2.748291 -28.82544 -4.1223145 -46.949463 -4.1223145z" fill-rule="evenodd"/><path fill="#ffffff" d="m1698.233 1358.048c-13.205444 0 -25.114258 2.355713 -35.72632 7.0670166c-10.612061 4.7113037 -15.918091 9.476196 -15.918091 14.294678l0 204.62207c0 2.8197021 1.5500488 4.8363037 4.6502686 6.0498047c3.1298828 1.213501 9.27063 1.8203125 18.421997 1.8203125l100.82959 0c2.7425537 0 4.9334717 -5.2645264 6.572998 -15.793701c1.6395264 -10.529175 2.4592285 -23.07483 2.4592285 -37.637207c0 -14.598022 -1.9227295 -21.896973 -5.7680664 -21.896973c-11.327515 0 -28.169678 0.87438965 -50.52661 2.623291l0 -145.73035c0 -2.177246 -0.64086914 -4.35437 -1.9226074 -6.531616c-3.666626 -5.9249268 -11.3573 -8.887329 -23.072388 -8.887329z" fill-rule="evenodd"/><path fill="#ffffff" d="m1888.8629 1407.0353c3.845459 0 6.8710938 1.534668 9.076904 4.604248c2.2059326 3.069458 4.0391846 9.654663 5.499878 19.755493c1.4605713 10.065186 2.190918 24.431152 2.190918 43.098022c0 18.631226 -0.7303467 33.157837 -2.190918 43.579956c-1.4606934 10.421997 -3.2939453 17.221313 -5.499878 20.39795c-2.2058105 3.1766357 -5.2314453 4.7648926 -9.076904 4.7648926c-3.845337 0 -6.8709717 -1.5882568 -9.076904 -4.7648926c-2.1760254 -3.1766357 -3.9943848 -9.975952 -5.455078 -20.39795c-1.4605713 -10.422119 -2.190918 -24.94873 -2.190918 -43.579956c0 -18.66687 0.7303467 -33.032837 2.190918 -43.098022c1.4606934 -10.10083 3.2790527 -16.686035 5.455078 -19.755493c2.2059326 -3.06958 5.2315674 -4.604248 9.076904 -4.604248zm0 -51.98535c-28.02063 0 -50.809692 8.780151 -68.36731 26.340576c-8.972534 8.994385 -15.977783 21.165405 -21.015503 36.51294c-5.0377197 15.347534 -7.5566406 33.31848 -7.5566406 53.91272c0 49.147827 9.240845 82.377075 27.722534 99.687744c9.151489 8.780151 19.167358 14.865723 30.04773 18.25647c10.910156 3.390747 23.966553 5.0860596 39.16919 5.0860596c29.868896 0 53.492676 -9.975952 70.87146 -29.927734c17.408447 -19.951782 26.112793 -50.985962 26.112793 -93.10254c0 -46.899292 -9.613403 -78.68298 -28.840332 -95.351074c-9.509155 -8.137817 -19.629395 -13.741455 -30.360718 -16.810913c-10.701538 -3.06958 -23.295898 -4.604248 -37.783203 -4.604248z" fill-rule="evenodd"/><path fill="#ffffff" d="m2051.2573 1358.3693c-10.254395 0 -19.733643 1.4276123 -28.437988 4.282959c-8.704224 2.8553467 -15.441162 6.0855713 -20.210571 9.69043c-4.7695312 3.6048584 -7.154297 6.7279053 -7.154297 9.369141c0 1.3205566 7.511963 25.662476 22.535767 73.02576c15.023926 47.36328 27.946167 89.69397 38.766846 126.992065c1.0732422 3.7120361 3.0703125 6.335327 5.991699 7.870117c2.9511719 1.534668 9.002441 2.302124 18.153809 2.302124c29.481201 0 45.23535 -3.390747 47.26245 -10.172241c23.072266 -79.41467 39.467285 -134.46948 49.185303 -165.16467c2.9211426 -9.636719 5.708252 -18.66687 8.361328 -27.09021c2.6530762 -8.458984 3.9794922 -13.616455 3.9794922 -15.472412c0 -1.8917236 -0.6855469 -3.9261475 -2.0568848 -6.1033936c-1.3710938 -2.2128906 -4.531006 -4.35437 -9.479248 -6.4244385c-4.948242 -2.0701904 -12.549561 -3.1052246 -22.803955 -3.1052246c-10.254395 0 -21.343506 1.7489014 -33.26709 5.246704c-11.893799 3.4978027 -18.10913 8.316162 -18.645752 14.4552l-8.495605 116.819824l-3.8452148 0l-9.613525 -119.764404c-0.38745117 -4.1759033 -2.9660645 -8.012817 -7.7355957 -11.51062c-4.739502 -3.4978027 -12.236572 -5.246704 -22.490967 -5.246704z" fill-rule="evenodd"/><path fill="#ffffff" d="m2233.0942 1358.3693c-11.1484375 0 -18.884033 1.213501 -23.206299 3.640503c-4.2924805 2.3913574 -6.4387207 6.442383 -6.4387207 12.153198l0 208.2091c0 3.2836914 1.5500488 5.692871 4.6501465 7.227661c3.1298828 1.534668 9.181152 2.302124 18.153809 2.302124l116.47949 0c2.7424316 0 4.9333496 -3.9439697 6.572754 -11.831909c1.6694336 -7.8879395 2.5041504 -19.505615 2.5041504 -34.85315c0 -15.383301 -1.9377441 -23.074951 -5.8129883 -23.074951c-12.072754 0 -34.041992 1.4277344 -65.90796 4.283081l0 -21.040405l49.72168 1.3383789c3.308838 0 5.9172363 -3.5692139 7.824951 -10.70752c1.9375 -7.1384277 2.90625 -17.614014 2.90625 -31.42688c0 -13.812744 -2.474121 -20.719116 -7.4223633 -20.719116c-8.25708 0 -25.934082 0.6602783 -53.030518 1.980835l0 -22.057617c28.199463 2.8553467 48.246094 4.283081 60.139893 4.283081c2.7722168 0 4.9782715 -3.9975586 6.617676 -11.992554c1.6394043 -7.994995 2.4592285 -19.61267 2.4592285 -34.85315c0 -15.2404785 -1.9226074 -22.860718 -5.7680664 -22.860718z" fill-rule="evenodd"/></g></g></svg>